<svg id="visual" viewBox="0 0 900 600" width="900" height="600" xmlns="http://www.w3.org/2000/svg" xmlns:xlink="http://www.w3.org/1999/xlink" version="1.1"><rect x="0" y="0" width="900" height="600" fill="#fff"></rect><path d="M512 0L518.5 14.3C525 28.7 538 57.3 543.8 85.8C549.7 114.3 548.3 142.7 524.8 171.2C501.3 199.7 455.7 228.3 453.2 257C450.7 285.7 491.3 314.3 508.2 343C525 371.7 518 400.3 508.5 428.8C499 457.3 487 485.7 462.2 514.2C437.3 542.7 399.7 571.3 380.8 585.7L362 600L0 600L0 585.7C0 571.3 0 542.7 0 514.2C0 485.7 0 457.3 0 428.8C0 400.3 0 371.7 0 343C0 314.3 0 285.7 0 257C0 228.3 0 199.7 0 171.2C0 142.7 0 114.3 0 85.8C0 57.3 0 28.7 0 14.3L0 0Z" fill="#ec3b44" stroke-linecap="round" stroke-linejoin="miter"></path></svg>